<!DOCTYPE svg PUBLIC "-//W3C//DTD SVG 1.1//EN" "http://www.w3.org/Graphics/SVG/1.1/DTD/svg11.dtd">
<svg version="1.1" id="Layer_1" xmlns="http://www.w3.org/2000/svg" width="500px" height="80.523px">
<path d="M191.605,27.771c0,3.017,0,4.526,2.566,6.387v0.151h-9.808v-0.151c2.465-1.255,2.114-4.524,2.114-6.891v-7.443
	l-8.351-13.429c-1.359-2.214-2.365-3.873-4.779-5.18h4.58c1.609,0,3.117,0.351,3.771,1.408l8.048,13.126l6.236-9.354
	c0.854-1.255,2.011-3.67-0.803-5.029v-0.15h8.8l-12.375,18.608V27.771z M230.721,31.045V14.56c0-1.702-0.263-4.501,1.667-5.221
	V9.227h-7.226v0.112c1.931,0.719,1.702,3.48,1.702,5.221v14.253c0,1.705,0.229,4.501-1.702,5.182v0.111h15.542l1.968-5.026h-0.114
	c-1.888,1.588-4.122,2.456-6.691,2.306L230.721,31.045z M249.282,21.97h6.439c1.175,0,2.761-0.038,3.366,1.06h0.115v-4.009h-0.115
	c-0.454,0.226-1.058,0.226-1.664,0.226h-8.141v-7.034c1.208-0.226,5.606-0.261,6.931-0.261c1.739,0,3.289,0.149,4.462,1.511h0.112
	V9.037h-0.112c-0.492,0.267-1.135,0.188-1.781,0.188h-15.17V9.34c1.928,0.718,1.702,3.477,1.702,5.218v14.256
	c0,1.702,0.226,4.501-1.702,5.179v0.114h15.768l1.702-4.953h-0.111c-1.894,1.664-4.503,2.458-6.997,2.232l-4.803-0.455V21.97z
	 M282.209,8.219l17.252,21.875c2.213,2.868,3.771,4.529,7.341,5.735V7.614c0-2.815,0-4.829,2.614-6.338V1.125h-8.852v0.151
	c2.668,1.509,2.614,3.523,2.614,6.338v19.061L284.772,3.443l-0.702-1.008c-0.354-0.403-0.553-0.654-0.755-1.258V1.125h-7.343v0.151
	c2.617,1.509,2.617,3.523,2.617,6.338v20.068c0,2.815,0,4.828-2.668,6.385v0.153h8.901v-0.153c-2.667-1.557-2.614-3.57-2.614-6.385
	V8.219z M348.63,16.148l4.156,13.006c1.25,3.895,1.514,3.707,4.995,6.09l7.976-26.019h-5.824V9.34
	c2.952,1.021,1.705,4.082,1.023,6.239l-4.276,13.843l-5.258-16.375c-0.529-1.664-0.79-2.875-0.563-3.821h-5.33V9.34
	c2.08,1.06,1.322,3.516,0.602,5.823l-4.423,14.371l-5.636-17.584c-0.229-0.719-0.604-1.89-0.454-2.724h-5.519V9.34
	c1.888,1.286,2.454,3.742,3.136,5.823l4.468,13.955c1.244,3.893,1.582,3.63,5.026,6.127L348.63,16.148z M401.588,18.035v9.104
	c0,2.261,0.352,5.935-2.212,6.887v0.153h9.605v-0.153c-2.566-0.952-2.266-4.626-2.266-6.887V8.125c0-2.26-0.301-5.935,2.266-6.889
	v-0.15h-9.605v0.15c2.563,0.955,2.212,4.629,2.212,6.941v6.236h-18.156V8.177c0-2.313-0.303-5.987,2.213-6.941v-0.15h-9.559v0.15
	c2.566,0.955,2.213,4.629,2.213,6.889v19.014c0,2.261,0.306,5.935-2.213,6.887v0.153h9.559v-0.153
	c-2.516-0.952-2.213-4.626-2.213-6.887v-9.104H401.588z M442.385,29.646l-6.013-16.449c-0.301-0.831-1.021-2.685-1.021-3.516
	l0.037-0.455h-5.516v0.112c1.659,1.289,2.229,3.48,2.946,5.408l5.71,15.469c1.099,2.984,1.966,3.287,4.614,5.029l9.983-26.018
	h-5.635v0.112c2.343,0.948,1.059,4.049,0.034,6.731L442.385,29.646z M460.682,21.97h6.106c1.176,0,2.761-0.038,3.367,1.06h0.111
	v-4.009h-0.111c-0.455,0.226-1.064,0.226-1.665,0.226h-7.809v-7.034c1.21-0.226,5.843-0.261,7.165-0.261
	c1.742,0,3.293,0.149,4.463,1.511h0.114V9.037h-0.114c-0.489,0.267-1.136,0.188-1.776,0.188h-15.409V9.34
	c1.925,0.718,1.699,3.477,1.699,5.218v14.256c0,1.702,0.226,4.501-1.699,5.179v0.114h15.768l1.702-4.953h-0.114
	c-1.891,1.664-4.497,2.458-6.994,2.232l-4.804-0.455V21.97z M479.54,14.558l12.971,16.452c1.665,2.154,2.841,3.401,5.521,4.308
	V14.106c0-2.118,0-3.633,1.968-4.766V9.226h-6.657V9.34c2.009,1.133,1.966,2.647,1.966,4.766v14.331l-13.84-17.47l-0.526-0.758
	c-0.267-0.299-0.418-0.489-0.569-0.944V9.226h-5.521V9.34c1.968,1.133,1.968,2.647,1.968,4.766v15.087c0,2.118,0,3.63-2.005,4.802
	v0.114h6.691v-0.114c-2-1.172-1.966-2.684-1.966-4.802V14.558z M209.642,21.973c0,0-2.947-0.012-4.412,2.884l4.644-12.416
	l3.705,9.532H209.642 M204.022,27.914c1.279-3.556,4.34-3.145,4.34-3.145h6.314l2.042,5.333c1.021,2.647,1.322,3.063-0.529,3.895
	v0.11h7.752v-0.11c-2.157-1.098-2.838-3.214-3.705-5.371l-7.866-19.398h-5.976v0.112c1.816,0.569,1.096,2.157,0.569,3.519
	l-6.316,15.768c-0.833,2.157-1.476,4.272-3.667,5.371v0.11h6.957v-0.11c-1.816-0.681-1.553-1.779-0.758-3.895L204.022,27.914z
	 M209.658,63.316v9.096c0,2.263,0.351,5.933-2.215,6.885v0.152h9.601v-0.152c-2.564-0.952-2.26-4.622-2.26-6.885V53.415
	c0-2.261-0.304-5.931,2.26-6.886v-0.151h-9.601v0.151c2.566,0.955,2.215,4.625,2.215,6.934v6.233h-18.146v-6.233
	c0-2.309-0.303-5.979,2.21-6.934v-0.151h-9.55v0.151c2.563,0.955,2.215,4.625,2.215,6.886v18.997c0,2.263,0.298,5.933-2.215,6.885
	v0.152h9.55v-0.152c-2.513-0.952-2.21-4.622-2.21-6.885v-9.096H209.658z M271.43,76.339V59.598c0-1.727-0.269-4.566,1.692-5.298
	v-0.114h-7.338V54.3c1.957,0.731,1.729,3.534,1.729,5.298v14.476c0,1.729,0.229,4.568-1.729,5.26v0.112h15.781l1.997-5.106h-0.114
	c-1.923,1.614-4.186,2.5-6.798,2.346L271.43,76.339z M294.084,56.949h3.457c1.263,0,2.801,0.191,3.301,1.535h0.114l1.231-4.569
	h-0.117c-0.5,0.234-1.114,0.271-1.767,0.271h-14.321h-0.96c-0.5-0.077-0.997-0.077-1.46-0.271h-0.114l-1.343,4.569h0.117
	c1.186-1.112,2.914-1.535,4.566-1.535h3.38v17.125c0,1.729,0.229,4.529-1.691,5.26v0.117h7.604v-0.117
	c-2.037-1.191-1.997-2.691-1.997-4.877V56.949z M324.304,67.122v6.952c0,1.729,0.269,4.526-1.687,5.258v0.117h7.335v-0.117
	c-1.96-0.731-1.734-3.529-1.734-5.258V59.561c0-1.727-0.226-4.529,1.734-5.258v-0.117h-7.335v0.117
	c1.955,0.729,1.687,3.531,1.687,5.295v4.76h-13.859v-4.76c0-1.764-0.229-4.566,1.691-5.295v-0.117h-7.295v0.117
	c1.958,0.729,1.689,3.531,1.689,5.258v14.513c0,1.729,0.229,4.526-1.689,5.258v0.117h7.295v-0.117
	c-1.92-0.731-1.691-3.529-1.691-5.258v-6.952H324.304z M225.671,67.183h6.5c1.186,0,2.787-0.04,3.396,1.066h0.114v-4.048h-0.114
	c-0.458,0.233-1.066,0.233-1.678,0.233h-8.218v-7.104c1.224-0.226,5.659-0.263,6.995-0.263c1.755,0,3.322,0.151,4.502,1.523h0.117
	v-4.465h-0.117c-0.495,0.269-1.141,0.191-1.792,0.191h-15.313v0.111c1.944,0.729,1.718,3.511,1.718,5.271v14.388
	c0,1.721,0.226,4.545-1.718,5.231v0.114h15.915l1.721-5h-0.117c-1.909,1.681-4.542,2.479-7.061,2.25l-4.848-0.457V67.183z
	 M250.311,66.693c0,0-2.947-0.013-4.41,2.884l4.641-12.274l3.705,9.391H250.311 M244.691,72.634c1.279-3.556,4.34-3.146,4.34-3.146
	h6.314l2.042,5.903c1.024,2.646,1.324,3.064-0.529,3.894V79.4h7.753v-0.114c-2.157-1.096-2.838-3.212-3.705-5.372l-7.869-19.823
	h-5.971v0.114c1.814,0.566,1.093,2.156,0.566,3.516l-6.316,15.625c-0.832,2.159-1.473,4.845-3.667,5.94V79.4h6.957v-0.114
	c-1.813-0.681-1.55-1.778-0.758-3.894L244.691,72.634z M421.146,21.956c0,0-2.95-0.011-4.412,2.884l4.641-12.412l3.704,9.528
	H421.146 M415.524,27.901c1.276-3.559,4.337-3.145,4.337-3.145h6.316l2.043,5.33c1.021,2.646,1.324,3.064-0.529,3.894v0.114h7.755
	v-0.114c-2.157-1.094-2.838-3.213-3.71-5.367l-7.864-19.401h-5.974v0.114c1.812,0.566,1.094,2.157,0.567,3.519l-6.316,15.768
	c-0.83,2.154-1.471,4.272-3.668,5.367v0.114h6.957v-0.114c-1.813-0.678-1.548-1.775-0.755-3.894L415.524,27.901z M316.727,21.765
	h6.436c1.176,0,2.761-0.037,3.367,1.06h0.117v-4.009h-0.117c-0.449,0.226-1.059,0.226-1.662,0.226h-8.141V12.01
	c1.207-0.229,5.604-0.266,6.931-0.266c1.736,0,3.287,0.152,4.463,1.513h0.111V8.832h-0.111c-0.492,0.265-1.139,0.189-1.782,0.189
	h-15.17v0.114c1.929,0.718,1.702,3.48,1.702,5.221v14.253c0,1.702,0.227,4.501-1.702,5.179v0.115h15.769l1.702-4.951h-0.114
	c-1.889,1.661-4.5,2.456-6.998,2.23l-4.8-0.455V21.765z"/>
<path fill="#006BB6" d="M54.956,18.328C54.972-0.629,73.854,0.002,73.854,0.002h28.97l-47.77,48.146L54.956,18.328 M71.418,41.929
	c-7.194,6.025-9.848,16.219-4.016,25.102c1.024,1.559,13.332,13.492,13.332,13.492l80.149-80.104h-48.097L71.418,41.929
	 M47.868,18.446C47.852-0.511,28.973,0.121,28.973,0.121H0l47.77,47.676L47.868,18.446"/>
</svg>
